<?xml version="1.0" standalone="no"?>
<!DOCTYPE svg PUBLIC "-//W3C//DTD SVG 20010904//EN"
 "http://www.w3.org/TR/2001/REC-SVG-20010904/DTD/svg10.dtd">
<svg version="1.0" xmlns="http://www.w3.org/2000/svg"
 width="1140.000000pt" height="291.000000pt" viewBox="0 0 1140.000000 291.000000"
 preserveAspectRatio="xMidYMid meet">

<g transform="translate(0.000000,291.000000) scale(0.100000,-0.100000)"
fill="#000000" stroke="none">
<path d="M273 2886 c-100 -33 -182 -102 -230 -196 -25 -50 -28 -65 -28 -160 0
-99 2 -109 33 -172 45 -91 122 -157 225 -191 15 -6 17 -21 17 -132 0 -111 -2
-126 -17 -132 -103 -34 -180 -100 -225 -191 -31 -63 -33 -73 -33 -172 0 -90 4
-112 24 -153 79 -161 260 -248 431 -207 l52 13 245 -246 246 -245 -13 -52
c-41 -171 46 -351 207 -431 42 -21 62 -24 158 -24 101 0 114 2 162 27 141 75
223 216 210 362 -11 140 -95 261 -219 319 l-58 28 0 122 0 123 59 27 c80 36
145 102 184 185 29 60 32 76 32 157 0 76 -5 99 -27 147 -37 80 -107 151 -187
191 -59 29 -74 32 -156 32 -80 0 -97 -3 -157 -32 -81 -38 -146 -102 -185 -181
-25 -51 -28 -68 -28 -157 0 -88 3 -107 27 -157 45 -96 135 -172 251 -211 15
-6 17 -21 17 -126 l0 -119 -48 -16 c-26 -9 -64 -27 -84 -41 l-37 -25 -227 223
-227 223 26 39 c129 196 47 468 -167 555 l-57 23 3 124 3 125 55 21 c65 24
155 109 188 177 91 190 9 420 -180 505 -75 34 -196 44 -265 21z m160 -177 c84
-23 145 -115 135 -204 -11 -97 -90 -165 -189 -165 -99 0 -174 68 -186 168 -10
89 49 175 137 200 47 14 59 14 103 1z m37 -999 c22 -11 52 -38 66 -60 94 -142
-33 -331 -195 -290 -168 42 -204 257 -58 345 54 32 130 34 187 5z m980 1 c57
-30 93 -83 98 -145 6 -71 -11 -117 -58 -160 -113 -102 -283 -42 -315 111 -14
69 41 169 110 199 44 19 124 17 165 -5z m19 -994 c81 -54 106 -168 56 -253
-86 -147 -301 -112 -346 56 -42 161 149 290 290 197z"/>
<path d="M1243 2882 c-101 -36 -180 -109 -225 -208 -19 -41 -23 -66 -23 -149
0 -89 3 -106 28 -157 39 -79 104 -143 185 -181 60 -29 76 -32 157 -32 72 1
101 6 143 25 l54 23 101 -99 c56 -54 161 -157 233 -228 l132 -128 -26 -57
c-22 -47 -27 -70 -27 -146 0 -77 4 -98 27 -147 15 -32 39 -73 53 -92 31 -40
114 -99 168 -117 l37 -13 0 -123 0 -123 -27 -11 c-107 -40 -180 -105 -223
-195 -90 -189 -17 -401 173 -502 48 -25 61 -27 162 -27 96 0 116 3 158 24 75
37 142 104 179 179 30 61 33 74 33 162 0 84 -3 102 -29 158 -36 79 -124 164
-196 189 l-50 18 0 126 0 125 56 23 c73 31 156 112 192 188 24 51 27 70 27
158 0 89 -3 106 -28 157 -39 79 -104 143 -185 181 -60 29 -76 32 -157 32 -71
-1 -100 -5 -139 -23 l-49 -22 -226 222 c-124 122 -230 225 -235 230 -5 4 1 30
15 60 18 42 23 71 24 143 0 81 -3 97 -32 157 -38 81 -103 147 -181 184 -76 37
-201 44 -279 16z m170 -173 c21 -5 54 -24 74 -42 122 -107 59 -312 -101 -325
-71 -6 -117 11 -160 58 -97 107 -50 267 92 310 38 12 52 11 95 -1z m1010 -993
c44 -18 94 -77 107 -127 36 -132 -97 -265 -230 -229 -23 6 -59 27 -80 46 -125
113 -45 324 123 324 26 0 62 -6 80 -14z m2 -985 c147 -67 147 -270 -1 -341
-122 -60 -264 31 -264 169 0 142 136 231 265 172z"/>
<path d="M2254 2891 c-106 -27 -198 -105 -247 -209 -28 -60 -32 -77 -32 -157
0 -82 3 -97 32 -156 39 -80 111 -150 191 -187 48 -23 70 -27 147 -27 77 0 99
4 147 27 79 37 120 70 162 131 102 151 84 350 -44 477 -71 71 -144 103 -245
106 -44 2 -94 -1 -111 -5z m186 -201 c42 -21 83 -81 95 -137 9 -46 -11 -109
-51 -153 -113 -125 -324 -45 -324 123 0 151 144 236 280 167z"/>
<path d="M7340 1986 c0 -228 3 -421 6 -430 5 -12 21 -16 65 -16 l59 0 0 143 1
142 77 -80 c43 -44 97 -108 120 -143 l43 -62 65 0 66 0 -23 38 c-44 72 -128
178 -183 230 -31 29 -56 54 -56 55 0 1 42 45 94 97 99 101 138 154 129 176 -3
9 -22 14 -57 14 -51 0 -54 -1 -87 -47 -40 -57 -168 -193 -180 -193 -5 0 -9
105 -9 233 0 168 -3 236 -12 245 -7 7 -36 12 -65 12 l-53 0 0 -414z"/>
<path d="M3157 2370 c-38 -5 -75 -11 -83 -14 -12 -4 -14 -67 -14 -388 0 -211
3 -393 6 -405 6 -21 13 -23 65 -23 l59 0 0 165 0 165 64 0 65 0 41 -57 c23
-32 64 -106 93 -165 l52 -107 63 -1 c61 0 63 1 56 23 -13 42 -106 222 -144
279 l-38 58 34 16 c96 46 138 179 99 310 -30 102 -106 147 -255 150 -52 1
-126 -1 -163 -6z m268 -120 c32 -30 49 -92 41 -154 -11 -97 -55 -126 -191
-126 l-85 0 0 149 c0 174 -10 161 122 157 77 -2 91 -5 113 -26z"/>
<path d="M6507 2370 c-38 -5 -75 -11 -83 -14 -12 -4 -14 -67 -14 -388 0 -211
3 -393 6 -405 6 -21 13 -23 65 -23 l59 0 0 165 0 165 64 0 65 0 41 -57 c23
-32 64 -106 93 -165 l52 -107 63 -1 c61 0 63 1 56 23 -13 42 -106 222 -144
279 l-38 58 34 16 c96 46 138 179 99 310 -30 102 -106 147 -255 150 -52 1
-126 -1 -163 -6z m268 -120 c32 -30 49 -92 41 -154 -11 -97 -55 -126 -191
-126 l-85 0 0 149 c0 174 -10 161 122 157 77 -2 91 -5 113 -26z"/>
<path d="M7101 2362 c-43 -34 -27 -107 24 -112 66 -7 95 13 95 64 0 39 -16 55
-62 62 -24 4 -40 1 -57 -14z"/>
<path d="M3845 2141 c-51 -23 -78 -53 -107 -116 -19 -43 -22 -67 -23 -175 0
-96 4 -137 18 -177 22 -63 78 -117 139 -134 54 -15 184 -14 249 1 50 12 50 13
47 49 l-3 36 -120 1 c-91 0 -128 4 -151 17 -37 19 -64 71 -64 121 l0 36 174 0
175 0 6 56 c12 94 -10 200 -53 248 -50 55 -204 76 -287 37z m178 -82 c31 -14
47 -49 54 -116 l6 -53 -127 0 -126 0 0 35 c0 48 22 97 55 123 31 25 97 30 138
11z"/>
<path d="M4482 2145 c-72 -20 -108 -50 -140 -115 -25 -51 -27 -64 -27 -180 0
-119 1 -128 30 -185 39 -79 83 -105 175 -105 46 0 77 6 105 20 22 11 41 20 42
20 6 0 3 -109 -3 -125 -14 -35 -64 -48 -176 -47 -58 1 -112 3 -120 4 -8 2 -14
-9 -16 -29 -4 -44 26 -61 124 -72 154 -18 256 18 295 103 17 37 19 70 19 329
0 280 0 287 20 287 17 0 20 7 20 40 0 37 -2 40 -37 50 -68 18 -252 22 -311 5z
m188 -270 l0 -185 -26 -16 c-33 -22 -112 -29 -143 -12 -50 26 -66 73 -66 188
0 167 34 209 168 210 l67 0 0 -185z"/>
<path d="M5012 2150 c-23 -5 -47 -12 -52 -15 -15 -9 -12 -75 3 -76 6 0 67 -2
134 -2 143 -2 162 -12 170 -89 l5 -45 -106 -6 c-120 -7 -177 -26 -218 -76 -64
-75 -45 -225 35 -285 24 -17 43 -21 111 -21 75 0 86 3 131 32 l50 32 8 -29 c7
-28 10 -30 58 -30 l51 0 -4 243 c-3 225 -5 245 -24 282 -36 66 -89 89 -209 92
-55 1 -119 -2 -143 -7z m258 -395 l0 -75 -42 -27 c-55 -37 -145 -40 -179 -6
-32 32 -38 110 -10 145 25 31 39 35 149 37 l82 1 0 -75z"/>
<path d="M5724 2136 c-28 -13 -55 -29 -58 -35 -12 -19 -26 -12 -26 13 0 28
-16 36 -71 36 l-39 0 0 -289 c0 -159 3 -296 6 -305 5 -12 21 -16 65 -16 l59 0
0 234 0 234 35 22 c68 42 160 35 188 -14 8 -14 14 -97 17 -246 l5 -225 58 -3
58 -3 -3 248 c-3 243 -3 249 -28 292 -33 58 -77 81 -155 81 -42 0 -75 -7 -111
-24z"/>
<path d="M8015 2141 c-51 -23 -78 -53 -107 -116 -19 -43 -22 -67 -23 -175 0
-96 4 -137 18 -177 22 -63 78 -117 139 -134 54 -15 184 -14 249 1 50 12 50 13
47 49 l-3 36 -120 1 c-91 0 -128 4 -151 17 -37 19 -64 71 -64 121 l0 36 174 0
175 0 6 56 c12 94 -10 200 -53 248 -50 55 -204 76 -287 37z m178 -82 c31 -14
47 -49 54 -116 l6 -53 -127 0 -126 0 0 35 c0 48 22 97 55 123 31 25 97 30 138
11z"/>
<path d="M7092 1848 l3 -303 58 -3 57 -3 0 294 c0 214 -3 296 -12 305 -7 7
-34 12 -60 12 l-48 0 2 -302z"/>
<path d="M6010 761 c0 -161 4 -291 10 -306 9 -23 60 -55 90 -55 19 0 11 47
-10 53 -35 9 -40 49 -40 323 l0 264 -25 0 -25 0 0 -279z"/>
<path d="M7630 725 l0 -315 30 0 30 0 0 184 0 184 31 6 c65 13 117 7 144 -16
35 -31 44 -79 45 -230 l0 -128 25 0 25 0 0 153 c0 139 -2 157 -22 197 -36 71
-120 98 -216 71 l-32 -10 0 110 0 109 -30 0 -30 0 0 -315z"/>
<path d="M9040 761 c0 -161 4 -291 10 -306 9 -23 60 -55 90 -55 19 0 11 47
-10 53 -35 9 -40 49 -40 323 l0 264 -25 0 -25 0 0 -279z"/>
<path d="M3482 988 c-25 -25 -6 -68 30 -68 9 0 22 9 28 20 22 40 -26 80 -58
48z"/>
<path d="M5392 988 c-25 -25 -6 -68 30 -68 9 0 22 9 28 20 22 40 -26 80 -58
48z"/>
<path d="M3057 973 c-4 -3 -7 -132 -7 -285 l0 -278 30 0 30 0 0 135 0 135 120
0 120 0 0 25 0 25 -120 0 -120 0 0 100 0 100 135 0 135 0 0 25 0 25 -158 0
c-87 0 -162 -3 -165 -7z"/>
<path d="M6347 974 c-4 -4 -7 -16 -7 -26 0 -16 10 -18 95 -18 l95 0 0 -260 0
-260 25 0 25 0 2 258 3 257 93 3 c90 3 93 4 90 25 -3 22 -5 22 -209 25 -113 1
-208 -1 -212 -4z"/>
<path d="M249 907 c-102 -43 -163 -101 -208 -197 -22 -47 -26 -69 -26 -150 0
-87 3 -101 32 -161 39 -79 102 -140 181 -177 49 -23 70 -27 152 -27 82 0 103
4 152 27 76 35 148 104 184 175 27 53 29 67 29 163 0 126 -17 172 -94 253 -75
79 -144 110 -256 114 -77 3 -98 0 -146 -20z m245 -190 c73 -56 98 -165 56
-246 -69 -136 -273 -133 -340 4 -44 91 -8 208 77 255 57 31 157 24 207 -13z"/>
<path d="M3713 828 l-43 -9 0 -205 0 -204 30 0 30 0 2 188 3 187 71 3 c123 5
143 -30 144 -250 l0 -128 25 0 25 0 0 153 c0 139 -2 157 -22 197 -30 59 -72
80 -158 79 -36 -1 -84 -5 -107 -11z"/>
<path d="M4178 833 c-11 -3 -18 -14 -18 -27 0 -22 2 -23 78 -18 72 4 78 3 101
-21 14 -16 25 -43 28 -69 l5 -44 -66 4 c-154 10 -242 -88 -176 -196 31 -50 78
-66 182 -59 48 3 92 8 98 12 6 4 10 69 10 166 0 179 -7 205 -63 239 -24 15
-49 20 -97 19 -36 -1 -73 -3 -82 -6z m185 -230 c4 -2 7 -38 7 -79 l0 -74 -74
0 c-93 0 -126 21 -126 79 0 44 22 69 72 81 31 8 103 4 121 -7z"/>
<path d="M4593 828 l-43 -9 0 -205 0 -204 30 0 30 0 2 188 3 187 71 3 c123 5
143 -30 144 -250 l0 -128 25 0 25 0 0 153 c0 139 -2 157 -22 197 -30 59 -72
80 -158 79 -36 -1 -84 -5 -107 -11z"/>
<path d="M5102 819 c-69 -35 -102 -99 -102 -199 0 -137 71 -219 190 -220 66 0
123 18 116 37 -3 8 -6 19 -6 24 0 5 -11 4 -26 -1 -42 -17 -116 -12 -151 10
-57 34 -82 115 -63 205 9 42 19 61 47 86 35 30 39 31 109 27 59 -4 74 -2 79
10 10 26 -12 36 -83 40 -53 2 -76 -1 -110 -19z"/>
<path d="M5628 833 c-11 -3 -18 -14 -18 -27 0 -22 2 -23 78 -18 72 4 78 3 101
-21 14 -16 25 -43 28 -69 l5 -44 -66 4 c-154 10 -242 -88 -176 -196 31 -50 78
-66 182 -59 48 3 92 8 98 12 6 4 10 69 10 166 0 179 -7 205 -63 239 -24 15
-49 20 -97 19 -36 -1 -73 -3 -82 -6z m185 -230 c4 -2 7 -38 7 -79 l0 -74 -74
0 c-93 0 -126 21 -126 79 0 44 22 69 72 81 31 8 103 4 121 -7z"/>
<path d="M6875 818 c-28 -16 -48 -39 -68 -78 -25 -49 -28 -63 -25 -136 3 -68
7 -87 30 -122 16 -23 42 -49 60 -58 42 -22 133 -29 186 -15 36 10 43 16 40 34
-2 16 -8 21 -23 17 -11 -3 -52 -5 -92 -5 -62 0 -75 3 -98 25 -29 27 -38 45
-50 98 l-7 32 153 0 152 0 -6 60 c-9 108 -59 161 -154 167 -46 3 -66 -1 -98
-19z m145 -38 c23 -12 40 -42 51 -87 l7 -33 -119 0 c-102 0 -119 2 -119 16 0
29 30 79 58 96 30 20 93 23 122 8z"/>
<path d="M7332 819 c-69 -35 -102 -99 -102 -199 0 -137 71 -219 190 -220 66 0
123 18 116 37 -3 8 -6 19 -6 24 0 5 -11 4 -26 -1 -42 -17 -116 -12 -151 10
-57 34 -82 115 -63 205 9 42 19 61 47 86 35 30 39 31 109 27 59 -4 74 -2 79
10 10 26 -12 36 -83 40 -53 2 -76 -1 -110 -19z"/>
<path d="M8133 828 l-43 -9 0 -205 0 -204 30 0 30 0 2 188 3 187 71 3 c123 5
143 -30 144 -250 l0 -128 25 0 25 0 0 153 c0 139 -2 157 -22 197 -30 59 -72
80 -158 79 -36 -1 -84 -5 -107 -11z"/>
<path d="M8655 826 c-130 -59 -158 -276 -49 -378 70 -65 178 -65 248 0 89 84
89 260 0 344 -52 48 -135 62 -199 34z m149 -57 c42 -33 58 -74 58 -149 0 -110
-38 -161 -125 -168 -42 -3 -57 0 -80 18 -43 34 -61 77 -61 150 0 72 18 116 60
149 36 29 112 29 148 0z"/>
<path d="M9335 826 c-130 -59 -158 -276 -49 -378 70 -65 178 -65 248 0 89 84
89 260 0 344 -52 48 -135 62 -199 34z m149 -57 c42 -33 58 -74 58 -149 0 -110
-38 -161 -125 -168 -42 -3 -57 0 -80 18 -43 34 -61 77 -61 150 0 72 18 116 60
149 36 29 112 29 148 0z"/>
<path d="M9814 821 c-79 -36 -114 -96 -114 -195 1 -112 47 -175 143 -196 42
-9 61 -8 102 4 27 8 51 13 53 11 2 -2 1 -23 -3 -46 -14 -81 -78 -110 -200 -91
-33 6 -61 9 -61 8 -1 0 -5 -11 -8 -23 -6 -19 -2 -23 31 -30 65 -14 168 -7 209
13 76 38 79 46 82 308 l3 233 -45 12 c-66 16 -145 13 -192 -8z m170 -37 c14
-5 16 -27 16 -139 0 -98 -3 -135 -13 -144 -8 -6 -36 -16 -64 -22 -44 -10 -55
-10 -89 7 -52 26 -79 74 -78 144 0 105 54 160 156 160 31 0 63 -3 72 -6z"/>
<path d="M3480 620 l0 -210 30 0 30 0 0 210 0 210 -30 0 -30 0 0 -210z"/>
<path d="M5390 620 l0 -210 30 0 30 0 0 210 0 210 -30 0 -30 0 0 -210z"/>
<path d="M10140 821 c0 -23 66 -206 113 -310 57 -129 57 -148 -3 -189 -27 -18
-44 -23 -77 -19 -35 4 -42 1 -46 -15 -7 -24 13 -33 68 -32 89 2 128 45 189
206 31 84 106 338 106 361 0 5 -12 7 -26 5 -24 -3 -28 -11 -59 -133 -19 -71
-42 -155 -53 -185 l-19 -55 -22 50 c-39 85 -88 218 -102 273 -12 47 -15 52
-41 52 -15 0 -28 -4 -28 -9z"/>
</g>
</svg>
