<svg width="348" height="348" xmlns="http://www.w3.org/2000/svg" xmlns:xlink="http://www.w3.org/1999/xlink" overflow="hidden"><defs><clipPath id="clip0"><rect x="128" y="202" width="348" height="348"/></clipPath></defs><g clip-path="url(#clip0)" transform="translate(-128 -202)"><path d="M129 251C129 224.49 150.49 203 177 203 203.51 203 225 224.49 225 251 225 277.51 203.51 299 177 299 150.49 299 129 277.51 129 251ZM153 251C153 264.255 163.745 275 177 275 190.255 275 201 264.255 201 251 201 237.745 190.255 227 177 227 163.745 227 153 237.745 153 251Z" fill="#4C2C84" fill-rule="evenodd"/><path d="M254 376C254 349.49 275.49 328 302 328 328.51 328 350 349.49 350 376 350 402.51 328.51 424 302 424 275.49 424 254 402.51 254 376ZM278 376C278 389.255 288.745 400 302 400 315.255 400 326 389.255 326 376 326 362.745 315.255 352 302 352 288.745 352 278 362.745 278 376Z" fill="#4C2C84" fill-rule="evenodd"/><path d="M379 376C379 349.49 400.49 328 427 328 453.51 328 475 349.49 475 376 475 402.51 453.51 424 427 424 400.49 424 379 402.51 379 376ZM403 376C403 389.255 413.745 400 427 400 440.255 400 451 389.255 451 376 451 362.745 440.255 352 427 352 413.745 352 403 362.745 403 376Z" fill="#4C2C84" fill-rule="evenodd"/><path d="M129 376C129 349.49 150.49 328 177 328 203.51 328 225 349.49 225 376 225 402.51 203.51 424 177 424 150.49 424 129 402.51 129 376ZM153 376C153 389.255 163.745 400 177 400 190.255 400 201 389.255 201 376 201 362.745 190.255 352 177 352 163.745 352 153 362.745 153 376Z" fill="#4C2C84" fill-rule="evenodd"/><path d="M254 251C254 224.49 275.49 203 302 203 328.51 203 350 224.49 350 251 350 277.51 328.51 299 302 299 275.49 299 254 277.51 254 251ZM278 251C278 264.255 288.745 275 302 275 315.255 275 326 264.255 326 251 326 237.745 315.255 227 302 227 288.745 227 278 237.745 278 251Z" fill="#4C2C84" fill-rule="evenodd"/><path d="M379 251C379 224.49 400.49 203 427 203 453.51 203 475 224.49 475 251 475 277.51 453.51 299 427 299 400.49 299 379 277.51 379 251ZM403 251C403 264.255 413.745 275 427 275 440.255 275 451 264.255 451 251 451 237.745 440.255 227 427 227 413.745 227 403 237.745 403 251Z" fill="#842C52" fill-rule="evenodd"/><path d="M129 501C129 474.49 150.49 453 177 453 203.51 453 225 474.49 225 501 225 527.51 203.51 549 177 549 150.49 549 129 527.51 129 501ZM153 501C153 514.255 163.745 525 177 525 190.255 525 201 514.255 201 501 201 487.745 190.255 477 177 477 163.745 477 153 487.745 153 501Z" fill="#2C8478" fill-rule="evenodd"/><path d="M254 501C254 474.49 275.49 453 302 453 328.51 453 350 474.49 350 501 350 527.51 328.51 549 302 549 275.49 549 254 527.51 254 501ZM278 501C278 514.255 288.745 525 302 525 315.255 525 326 514.255 326 501 326 487.745 315.255 477 302 477 288.745 477 278 487.745 278 501Z" fill="#4C2C84" fill-rule="evenodd"/><path d="M379 501C379 474.49 400.49 453 427 453 453.51 453 475 474.49 475 501 475 527.51 453.51 549 427 549 400.49 549 379 527.51 379 501ZM403 501C403 514.255 413.745 525 427 525 440.255 525 451 514.255 451 501 451 487.745 440.255 477 427 477 413.745 477 403 487.745 403 501Z" fill="#4C2C84" fill-rule="evenodd"/><rect x="165" y="296" width="23" height="48" fill="#4C2C84"/><path d="M188.767 415.303 204.919 398.873 280.225 472.903 264.073 489.333Z" fill="#4C2C84" fill-rule="evenodd"/><rect x="292" y="415" width="23" height="48" fill="#4C2C84"/><rect x="416" y="416" width="23" height="48" fill="#4C2C84"/><path d="M321.545 286.565 337.697 270.135 406.156 337.435 390.004 353.865Z" fill="#4C2C84" fill-rule="evenodd"/></g></svg>