<?xml version="1.0" standalone="no"?>
<!DOCTYPE svg PUBLIC "-//W3C//DTD SVG 20010904//EN"
 "http://www.w3.org/TR/2001/REC-SVG-20010904/DTD/svg10.dtd">
<svg version="1.0" xmlns="http://www.w3.org/2000/svg"
 width="1408.000000pt" height="277.000000pt" viewBox="0 0 1408.000000 277.000000"
 preserveAspectRatio="xMidYMid meet">

<g transform="translate(0.000000,277.000000) scale(0.100000,-0.100000)"
fill="#000000" stroke="none">
<path d="M10022 2693 c-85 -42 -278 -287 -547 -693 -111 -168 -272 -411 -358
-540 -85 -129 -188 -271 -227 -315 -86 -96 -101 -117 -103 -144 -3 -41 -240
-201 -412 -278 -247 -110 -406 -126 -484 -49 -29 29 -35 43 -39 90 -20 239
292 680 571 806 56 26 97 26 97 1 0 -64 -204 -278 -315 -331 -70 -33 -99 -65
-93 -102 11 -76 145 -24 319 124 120 102 239 279 239 356 0 90 -74 137 -173
112 -179 -45 -354 -175 -529 -393 -81 -102 -172 -248 -204 -330 -15 -38 -32
-57 -79 -91 -33 -23 -119 -86 -192 -139 -272 -199 -444 -297 -561 -319 -118
-22 -140 9 -151 215 -8 154 -21 195 -83 265 -16 19 -28 37 -26 41 2 4 46 46
98 95 254 237 584 626 662 781 71 139 84 216 44 262 -34 40 -84 36 -188 -14
-272 -132 -619 -490 -775 -801 -91 -182 -81 -289 43 -455 55 -73 70 -129 83
-295 10 -143 22 -177 74 -216 25 -18 42 -21 130 -20 89 0 113 5 186 32 147 55
313 156 547 331 l119 89 11 -69 c26 -151 117 -219 293 -219 89 0 182 23 326
82 91 38 282 135 313 160 6 6 12 8 12 5 0 -7 -173 -277 -263 -411 -78 -116
-101 -169 -87 -196 12 -23 46 -26 85 -8 15 7 53 50 85 97 152 221 354 459 497
587 88 78 212 168 221 160 2 -2 5 -71 6 -153 3 -161 11 -192 62 -232 36 -28
84 -35 146 -21 63 15 199 76 260 117 24 16 49 33 57 38 15 9 15 9 -26 -58 -31
-49 -28 -101 4 -105 36 -5 73 21 168 118 82 84 263 240 278 240 4 0 -6 -35
-22 -78 -48 -132 -49 -182 -2 -197 28 -9 90 20 136 64 118 112 424 325 442
307 3 -3 -11 -47 -30 -98 -83 -213 -72 -310 36 -339 78 -21 211 23 377 125 58
35 106 63 107 62 2 -1 -2 -18 -7 -37 -13 -46 -13 -125 1 -152 83 -161 293
-122 660 123 l134 90 12 -47 c22 -85 78 -136 162 -147 120 -16 333 39 522 135
34 17 57 24 53 17 -4 -7 -25 -40 -46 -72 -83 -129 -67 -203 35 -158 31 14 65
44 114 103 75 90 232 245 298 296 56 43 106 66 116 56 5 -5 16 -48 23 -95 15
-90 31 -131 64 -161 27 -25 88 -46 132 -47 171 -2 550 228 517 314 -14 36 -75
16 -207 -70 -118 -76 -190 -106 -251 -102 -69 4 -85 27 -104 140 -17 106 -34
140 -79 162 -50 24 -76 20 -162 -23 -43 -22 -80 -39 -81 -38 -1 2 30 45 68 97
107 144 124 176 111 206 -9 17 -20 24 -41 24 -37 0 -111 -80 -236 -255 -85
-118 -87 -120 -188 -179 -206 -119 -372 -188 -502 -207 -93 -14 -138 -6 -165
29 -19 23 -21 37 -18 108 3 93 -7 114 -56 114 -36 0 -73 -21 -153 -87 -84 -68
-234 -164 -341 -218 -73 -37 -108 -49 -157 -53 -60 -4 -64 -3 -80 22 -63 95
128 407 353 579 184 140 364 204 552 195 163 -8 231 -57 245 -178 8 -68 22
-84 63 -75 49 10 75 47 80 114 11 157 -93 250 -318 281 -179 25 -448 -60 -652
-207 -102 -73 -231 -199 -298 -291 -48 -65 -70 -84 -216 -182 -223 -148 -334
-199 -370 -169 -20 16 -15 46 42 222 24 75 44 144 44 153 0 9 -13 29 -29 45
-63 62 -148 29 -414 -160 -70 -49 -127 -87 -127 -83 1 4 7 34 15 67 19 78 19
88 -3 116 -31 38 -77 29 -215 -39 -4 -2 33 58 83 134 73 110 90 143 88 168 -2
25 -8 32 -30 34 -43 5 -112 -68 -227 -241 l-101 -152 -149 -97 c-157 -103
-262 -160 -323 -176 -31 -9 -42 -7 -59 7 -19 16 -22 30 -28 183 -7 186 -13
202 -78 214 -55 10 -117 -14 -224 -88 -111 -77 -110 -79 -17 70 74 118 122
181 394 522 490 616 652 855 708 1046 14 47 -47 75 -102 47z m-2677 -725 c-28
-95 -178 -296 -426 -573 -181 -202 -296 -312 -311 -297 -34 34 47 226 155 372
135 181 301 343 467 455 103 70 125 78 115 43z"/>
<path d="M5225 2136 c-268 -86 -679 -489 -852 -834 -61 -122 -74 -202 -48
-305 5 -20 -5 -30 -82 -78 -315 -199 -644 -340 -829 -356 -126 -10 -184 27
-184 119 0 87 77 271 128 306 68 47 107 92 139 157 18 38 33 84 33 102 0 41
-26 58 -66 43 -35 -14 -124 -106 -202 -210 -84 -112 -66 -97 -244 -215 -218
-144 -328 -194 -364 -164 -20 16 -15 46 42 222 24 75 44 144 44 153 0 9 -13
29 -29 45 -63 62 -148 29 -414 -160 -70 -49 -127 -87 -127 -83 1 4 7 34 15 67
19 78 19 88 -3 116 -31 38 -77 29 -215 -39 -4 -2 33 58 83 134 73 110 90 143
88 168 -2 25 -8 32 -30 34 -42 5 -112 -68 -218 -228 l-93 -140 -123 -70 c-213
-122 -358 -182 -489 -201 -93 -14 -138 -6 -165 29 -19 23 -21 37 -18 108 3 93
-7 114 -56 114 -36 0 -73 -21 -153 -87 -84 -68 -234 -164 -341 -218 -73 -37
-108 -49 -157 -53 -60 -4 -64 -3 -80 22 -63 95 128 407 353 579 184 140 364
204 552 195 163 -8 231 -57 245 -178 8 -68 22 -84 63 -75 49 10 75 47 80 114
11 157 -93 250 -318 281 -179 25 -448 -60 -652 -207 -249 -179 -468 -487 -485
-684 -7 -71 0 -99 33 -139 98 -116 298 -66 635 160 l134 90 12 -47 c22 -85 78
-136 162 -147 122 -16 332 39 531 139 39 19 70 32 70 29 0 -4 -18 -36 -41 -71
-46 -74 -51 -126 -12 -131 36 -5 73 21 168 118 82 84 263 240 278 240 4 0 -6
-35 -22 -77 -48 -133 -49 -183 -2 -198 28 -9 90 20 136 64 118 112 424 325
442 307 3 -3 -11 -47 -30 -98 -83 -213 -72 -310 36 -339 93 -25 256 40 491
196 l29 19 -8 -23 c-12 -40 -7 -155 9 -193 74 -173 268 -187 623 -44 210 84
495 239 625 338 l36 28 31 -37 c48 -58 68 -124 75 -253 11 -183 27 -226 97
-263 28 -15 50 -18 124 -14 104 5 206 39 338 111 249 135 657 454 657 512 0
31 -24 47 -59 39 -31 -7 -92 -47 -298 -198 -271 -199 -444 -297 -561 -319
-118 -22 -140 9 -151 215 -8 154 -21 195 -83 265 -16 19 -28 37 -26 41 2 4 46
46 98 95 254 237 584 626 662 781 70 137 84 216 46 259 -29 32 -62 39 -113 22z
m-20 -168 c-28 -95 -178 -296 -426 -573 -181 -202 -296 -312 -311 -297 -34 34
47 226 155 372 135 181 301 343 467 455 103 70 125 78 115 43z"/>
<path d="M3620 1578 c-48 -33 -81 -93 -78 -143 3 -38 5 -40 40 -43 29 -2 43 3
71 28 40 35 70 103 65 146 -2 24 -8 30 -33 32 -19 2 -43 -6 -65 -20z"/>
</g>
</svg>
